HIERARCHY
ROOT root
{
	OFFSET	0	13.1	24.9
	CHANNELS 6  Xposition Yposition Zposition Xrotation Yrotation Zrotation
	JOINT spine_1
	{
		OFFSET	0	9.99999	0
		CHANNELS 3  Xrotation Yrotation Zrotation
		JOINT spine_2
		{
			OFFSET	0	112	-10
			CHANNELS 3  Xrotation Yrotation Zrotation
			JOINT spine_3
			{
				OFFSET	0	206.5	19.3
				CHANNELS 3  Xrotation Yrotation Zrotation
				JOINT spine_4
				{
					OFFSET	0	110.4	14.6
					CHANNELS 3  Xrotation Yrotation Zrotation
					JOINT neck_1
					{
						OFFSET	0	71.8	-50.3
						CHANNELS 3  Xrotation Yrotation Zrotation
						JOINT neck_2
						{
							OFFSET	0	86.2	-25.8
							CHANNELS 3  Xrotation Yrotation Zrotation
							JOINT head_ee
							{
								OFFSET	0	179.8	-8.7
								CHANNELS 3  Xrotation Yrotation Zrotation
								End Site
								{
									OFFSET	1	0	0
								}
							}
						}
					}
					JOINT left_clavicle
					{
						OFFSET	-43.2	22.4	-70.8
						CHANNELS 3  Xrotation Yrotation Zrotation
						JOINT left_shoulder
						{
							OFFSET	-93.9	-5.79999	48.7
							CHANNELS 3  Xrotation Yrotation Zrotation
							JOINT left_elbow
							{
								OFFSET	-291.4	-30.8	15.2
								CHANNELS 3  Xrotation Yrotation Zrotation
								JOINT left_lowarm_twist
								{
									OFFSET	-110.7	-3.89999	13.6
									CHANNELS 3  Xrotation Yrotation Zrotation
									JOINT left_hand
									{
										OFFSET	-110.7	-3.89999	13.6
										CHANNELS 3  Xrotation Yrotation Zrotation
										JOINT left_ee
										{
											OFFSET	-80.8	-5.10001	12.1
											CHANNELS 3  Xrotation Yrotation Zrotation
											End Site
											{
												OFFSET	1	0	0
											}
										}
									}
								}
							}
						}
					}
					JOINT right_clavicle
					{
						OFFSET	43.2	22.4	-70.8
						CHANNELS 3  Xrotation Yrotation Zrotation
						JOINT right_shoulder
						{
							OFFSET	93.9	-5.79999	48.7
							CHANNELS 3  Xrotation Yrotation Zrotation
							JOINT right_elbow
							{
								OFFSET	291.4	-30.8	15.2
								CHANNELS 3  Xrotation Yrotation Zrotation
								JOINT right_lowarm_twist
								{
									OFFSET	110.7	-3.89999	13.6
									CHANNELS 3  Xrotation Yrotation Zrotation
									JOINT right_hand
									{
										OFFSET	110.7	-3.89999	13.6
										CHANNELS 3  Xrotation Yrotation Zrotation
										JOINT right_ee
										{
											OFFSET	80.8	-5.10001	12.1
											CHANNELS 3  Xrotation Yrotation Zrotation
											End Site
											{
												OFFSET	1	0	0
											}
										}
									}
								}
							}
						}
					}
				}
			}
		}
	}
	JOINT left_hip
	{
		OFFSET	-82.8	-127.5	0.300001
		CHANNELS 3  Xrotation Yrotation Zrotation
		JOINT left_knee
		{
			OFFSET	-28.2	-396.7	2.2
			CHANNELS 3  Xrotation Yrotation Zrotation
			JOINT left_ankle
			{
				OFFSET	-11.7	-411.3	35.4
				CHANNELS 3  Xrotation Yrotation Zrotation
				JOINT left_toes
				{
					OFFSET	0	-60	-88.6
					CHANNELS 3  Xrotation Yrotation Zrotation
					JOINT left_foot_ee
					{
						OFFSET	-22.5	-16.5	-42.2
						CHANNELS 3  Xrotation Yrotation Zrotation
						End Site
						{
							OFFSET	1	0	0
						}
					}
				}
			}
		}
	}
	JOINT right_hip
	{
		OFFSET	82.8	-127.5	0.300001
		CHANNELS 3  Xrotation Yrotation Zrotation
		JOINT right_knee
		{
			OFFSET	28.2	-396.7	2.2
			CHANNELS 3  Xrotation Yrotation Zrotation
			JOINT right_ankle
			{
				OFFSET	11.7	-411.3	35.4
				CHANNELS 3  Xrotation Yrotation Zrotation
				JOINT right_toes
				{
					OFFSET	0	-60	-88.6
					CHANNELS 3  Xrotation Yrotation Zrotation
					JOINT right_foot_ee
					{
						OFFSET	22.5	-16.5	-42.2
						CHANNELS 3  Xrotation Yrotation Zrotation
						End Site
						{
							OFFSET	1	0	0
						}
					}
				}
			}
		}
	}
}
MOTION
Frames: 6
Frame Time: 0.02
1078.61 710.168 -1423.13 -13.1056 60.728 17.7829 3.46749 -0.408643 -1.83302 3.46932 -0.291196 -1.85529 3.47798 -0.00875242 -1.87798 3.47319 -0.305183 -1.85305 -0.837031 -0.814465 -0.888808 -0.834917 -0.741298 -1.04176 -0.0 0.0 -0.0 11.973 -21.0153 23.7965 -4.59857 17.1301 60.7173 2.54085 -51.5247 1.22639 -5.45526 -0.223856 0.660179 0.784207 0.562575 5.47475 -0.0 0.0 -0.0 4.0501 -11.3015 -8.21278 -17.324 28.629 -66.3155 0.472189 13.1655 -0.0544903 -17.26 0.916788 -1.99922 1.68288 -0.386791 -11.4707 0.0 0.0 0.0 4.32264 -22.645 -5.31177 2.58709 -0.115149 -0.38024 25.0853 28.0651 -3.58715 38.5382 -0.0 -0.0 -0.0 0.0 -0.0 21.8413 3.76348 -3.4257 -13.0977 -0.314008 -1.98113 3.88448 -8.77052 0.562811 15.8429 -0.0 -0.0 0.0 0.0 0.0 
1081.84 711.502 -1431.05 -13.3052 60.8265 17.7729 3.41261 -0.35 -1.82856 3.41444 -0.232955 -1.84712 3.4212 0.0494714 -1.86109 3.41645 -0.245023 -1.84556 -0.847659 -1.76934 -0.0998415 -0.841813 -3.09019 -0.312895 -0.0 0.0 -0.0 11.6559 -22.1135 22.9808 -5.91956 18.4601 62.1265 2.34244 -49.2384 1.07352 -1.96011 -0.0731736 0.239592 1.12897 -2.95235 6.35197 -0.0 0.0 -0.0 4.40456 -13.031 -8.83881 -15.6426 26.5734 -66.1249 0.626603 17.2445 -0.0950147 -15.1405 0.772204 -1.76963 0.771405 -0.816559 -5.49266 0.0 0.0 0.0 4.98551 -20.0978 -5.3216 2.10363 -0.0923256 -0.309576 24.4251 28.2373 -3.5073 39.2673 -0.0 -0.0 -0.0 0.0 -0.0 21.6072 3.75554 -3.63481 -12.7752 -0.311748 -1.9317 3.57252 -3.83899 0.519579 14.8251 -0.0 -0.0 0.0 0.0 0.0 
1077.18 711.133 -1433.5 -12.6513 62.5312 17.0908 3.24896 -0.422128 -1.84622 3.2508 -0.303814 -1.86932 3.26006 -0.0119174 -1.89381 3.25519 -0.310806 -1.86818 -0.458534 -2.79296 0.0544897 -0.441405 -5.03659 -0.253635 -0.0 0.0 -0.0 12.2346 -22.3897 24.283 -7.03174 19.0766 63.4688 1.99107 -44.6004 0.816676 -2.87846 -0.110272 0.350967 1.19675 -4.62691 6.11399 -0.0 0.0 -0.0 4.35983 -14.4484 -8.77484 -15.373 27.2416 -65.1672 0.674274 18.4702 -0.109634 -13.9564 0.695169 -1.63911 1.15287 -0.217065 -7.81156 0.0 0.0 0.0 5.1688 -17.5472 -4.91354 1.80349 -0.0784568 -0.265612 23.7506 28.3366 -3.42303 40.0616 -0.0 -0.0 -0.0 0.0 -0.0 20.6851 3.97125 -3.33827 -13.0806 -0.313896 -1.97852 3.8032 -8.20899 0.551135 13.7655 -0.0 -0.0 0.0 0.0 0.0 
1073.9 711.017 -1435.63 -11.8597 63.5498 16.1529 3.17956 -0.408807 -1.84097 3.1814 -0.290854 -1.86324 3.19024 0.00225453 -1.88579 3.1854 -0.295547 -1.8625 -1.54408 -3.37776 0.870658 -1.51274 -6.77684 0.496844 -0.0 0.0 -0.0 12.6068 -25.2097 24.8602 -7.68975 19.3767 65.3759 1.64272 -39.134 0.583914 -3.66452 -0.143442 0.445822 1.19576 -5.68367 5.66387 -0.0 0.0 -0.0 4.28864 -15.0591 -8.66234 -14.4095 28.213 -64.3865 0.695068 18.9995 -0.116313 -13.4685 0.664222 -1.58488 1.49644 0.444744 -9.86823 0.0 0.0 0.0 5.05195 -16.9103 -4.64418 1.15058 -0.0490868 -0.169734 19.8133 27.5947 -2.88909 40.1388 -0.0 -0.0 -0.0 0.0 -0.0 19.6919 4.09335 -3.43807 -13.0772 -0.313873 -1.978 4.24656 -12.7386 0.616533 15.6996 -0.0 -0.0 0.0 0.0 0.0 
1072.25 712.614 -1439.59 -12.6512 64.8127 16.7732 3.18449 -0.401387 -1.9368 3.18653 -0.277354 -1.9584 3.19532 0.0302168 -1.97771 3.18997 -0.282444 -1.95768 -1.99705 -3.01625 1.51911 -1.96225 -6.65039 1.20206 -0.0 0.0 -0.0 12.7463 -26.8175 24.9944 -8.56669 19.411 66.3482 1.54109 -37.356 0.520999 -3.70663 -0.145256 0.450891 1.23892 -6.08881 5.78566 -0.0 0.0 -0.0 4.67317 -14.7366 -9.28828 -12.8807 28.8101 -63.6703 0.764587 20.7443 -0.139946 -11.45 0.541138 -1.35782 1.98572 2.50537 -12.3744 0.0 0.0 0.0 5.28839 -17.4432 -4.78148 0.769506 -0.032451 -0.113625 17.371 24.9544 -2.51726 40.234 -0.0 -0.0 -0.0 0.0 -0.0 18.8276 4.20813 -3.41868 -12.2871 -0.307798 -1.85691 7.30159 -15.61 1.05632 16.9258 -0.0 -0.0 0.0 0.0 0.0 
1073.3 713.351 -1444.78 -12.0409 64.9813 15.9684 3.07302 -0.368648 -1.72494 3.07464 -0.258156 -1.74489 3.082 0.0195093 -1.76377 3.07776 -0.259248 -1.74473 -1.25605 -3.51495 2.04763 -1.19721 -7.95862 1.74598 -0.0 0.0 -0.0 13.2259 -27.3582 26.0314 -7.73728 18.2822 65.4791 1.13381 -29.3201 0.296613 -4.13416 -0.163882 0.502278 1.29418 -2.79132 7.53716 -0.0 0.0 -0.0 5.36282 -15.7628 -10.3971 -11.7663 29.4918 -62.8803 0.878789 23.5245 -0.182988 -9.9699 0.456021 -1.18868 2.16468 2.96035 -13.4215 0.0 0.0 0.0 5.43792 -16.7873 -4.66449 -0.420286 0.0170776 0.0622364 17.3878 25.8535 -2.53241 40.1853 -0.0 -0.0 -0.0 0.0 -0.0 18.7902 4.81372 -3.70366 -12.0892 -0.306015 -1.8266 7.59282 -18.8081 1.10741 16.4399 -0.0 -0.0 0.0 0.0 0.0 
